<svg width="30" height="28" viewBox="0 0 30 28" fill="none" xmlns="http://www.w3.org/2000/svg">
<path d="M23.75 5.24927H21.125C20.8349 3.83853 20.0673 2.57095 18.9516 1.66017C17.8359 0.74938 16.4403 0.251086 15 0.249268H6.25C4.59301 0.251252 3.00445 0.91037 1.83277 2.08204C0.661102 3.25372 0.00198482 4.84227 0 6.49927L0 17.7493C0.00314226 18.8688 0.381922 19.9549 1.07567 20.8336C1.76942 21.7123 2.73799 22.3327 3.82625 22.5955C3.70845 23.2211 3.72859 23.8648 3.88524 24.4818C4.04189 25.0988 4.33129 25.6741 4.73325 26.1677C5.1352 26.6613 5.64002 27.0613 6.21248 27.3396C6.78495 27.618 7.41126 27.7681 8.04771 27.7794C8.68417 27.7908 9.31543 27.6631 9.89745 27.4053C10.4795 27.1475 10.9982 26.7658 11.4175 26.2869C11.8368 25.8079 12.1465 25.2432 12.3251 24.6322C12.5036 24.0212 12.5467 23.3786 12.4513 22.7493H17.5538C17.5216 22.9561 17.5045 23.165 17.5025 23.3743C17.5025 24.5346 17.9634 25.6474 18.7839 26.4679C19.6044 27.2883 20.7172 27.7493 21.8775 27.7493C23.0378 27.7493 24.1506 27.2883 24.9711 26.4679C25.7916 25.6474 26.2525 24.5346 26.2525 23.3743C26.2511 23.1129 26.2256 22.8522 26.1762 22.5955C27.264 22.3322 28.2321 21.7116 28.9253 20.8329C29.6186 19.9543 29.997 18.8685 30 17.7493V11.4993C29.998 9.84227 29.3389 8.25372 28.1672 7.08204C26.9956 5.91037 25.407 5.25125 23.75 5.24927V5.24927ZM27.5 11.4993V12.7493H21.25V7.74927H23.75C24.7446 7.74927 25.6984 8.14436 26.4017 8.84762C27.1049 9.55088 27.5 10.5047 27.5 11.4993ZM2.5 17.7493V6.49927C2.5 5.50471 2.89509 4.55088 3.59835 3.84762C4.30161 3.14436 5.25544 2.74927 6.25 2.74927H15C15.9946 2.74927 16.9484 3.14436 17.6517 3.84762C18.3549 4.55088 18.75 5.50471 18.75 6.49927V20.2493H5C4.33696 20.2493 3.70107 19.9859 3.23223 19.517C2.76339 19.0482 2.5 18.4123 2.5 17.7493ZM10 23.3743C10 23.8716 9.80246 24.3485 9.45083 24.7001C9.09919 25.0517 8.62228 25.2493 8.125 25.2493C7.62772 25.2493 7.15081 25.0517 6.79917 24.7001C6.44754 24.3485 6.25 23.8716 6.25 23.3743C6.25077 23.1606 6.29015 22.9489 6.36625 22.7493H9.88375C9.95985 22.9489 9.99923 23.1606 10 23.3743V23.3743ZM21.875 25.2493C21.3777 25.2493 20.9008 25.0517 20.5492 24.7001C20.1975 24.3485 20 23.8716 20 23.3743C20.0005 23.1606 20.0399 22.9488 20.1163 22.7493H23.6337C23.7101 22.9488 23.7495 23.1606 23.75 23.3743C23.75 23.8716 23.5525 24.3485 23.2008 24.7001C22.8492 25.0517 22.3723 25.2493 21.875 25.2493ZM25 20.2493H21.25V15.2493H27.5V17.7493C27.5 18.4123 27.2366 19.0482 26.7678 19.517C26.2989 19.9859 25.663 20.2493 25 20.2493Z" fill="#FF347D"/>
</svg>
