<svg width="79" height="20" viewBox="0 0 79 20" fill="none" xmlns="http://www.w3.org/2000/svg">
<path d="M1.13281 19.8047C0.940104 19.8047 0.78125 19.7292 0.65625 19.5781C0.557292 19.4635 0.507812 19.3307 0.507812 19.1797C0.445312 18.612 0.393229 18.0469 0.351562 17.4844C0.122396 14.1719 0.0078125 10.8542 0.0078125 7.53125V7.3125C0.00260417 7.24479 0 7.17448 0 7.10156C0 6.82552 0.0625 6.51562 0.1875 6.17188C0.3125 5.82812 0.513021 5.57292 0.789062 5.40625C0.888021 5.34896 0.992188 5.32031 1.10156 5.32031C1.29948 5.32031 1.51823 5.41927 1.75781 5.61719C2.00781 5.91927 2.15885 6.25781 2.21094 6.63281C2.2474 6.91406 2.26562 7.19792 2.26562 7.48438L2.25781 7.77344L2.25 8.16406C2.24479 9.13281 2.23177 10.1016 2.21094 11.0703C2.89323 8.46094 3.52604 6.41667 4.10938 4.9375C4.69792 3.45833 5.30208 2.51562 5.92188 2.10938C6.17708 1.94271 6.44271 1.85938 6.71875 1.85938C7.13021 1.85938 7.57031 2.03906 8.03906 2.39844C8.64844 2.9401 9.01302 3.70052 9.13281 4.67969C9.16927 4.97656 9.1875 5.27083 9.1875 5.5625C9.1875 6.02083 9.13542 6.55208 9.03125 7.15625C8.84375 8.25 8.41667 9.47917 7.75 10.8438C6.91667 12.5521 6.00781 13.6432 5.02344 14.1172C4.79427 14.2266 4.55729 14.2812 4.3125 14.2812C3.97917 14.2812 3.63542 14.1745 3.28125 13.9609C3.125 13.7995 3.04688 13.638 3.04688 13.4766C3.04688 13.1276 3.3125 12.7422 3.84375 12.3203L3.94531 12.2344C4.6849 11.4844 5.30729 10.6406 5.8125 9.70312C6.86979 7.73958 7.39844 6.0651 7.39844 4.67969C7.39844 4.5026 7.39062 4.32552 7.375 4.14844C7.36458 4.04948 7.33073 3.91146 7.27344 3.73438C7.1276 3.3125 6.96615 3.10156 6.78906 3.10156L6.74219 3.10938L6.67969 3.10156C6.46094 3.10156 6.19271 3.42448 5.875 4.07031C5.55729 4.71094 5.21094 5.60156 4.83594 6.74219C4.46094 7.8776 4.09115 9.11198 3.72656 10.4453C3.36719 11.7734 3.03646 13.0625 2.73438 14.3125C2.4375 15.5625 2.20052 16.6354 2.02344 17.5312C1.84635 18.4323 1.75521 19.0156 1.75 19.2812C1.71354 19.4583 1.6276 19.5938 1.49219 19.6875C1.38281 19.7656 1.26302 19.8047 1.13281 19.8047ZM11.1644 17.0234C11.0237 17.0234 10.7477 16.9948 10.3362 16.9375C9.93 16.8854 9.45604 16.6484 8.91437 16.2266C8.12271 15.5339 7.72687 14.7214 7.72687 13.7891C7.72687 13.112 7.92219 12.4323 8.31281 11.75C8.70344 11.0677 9.27115 10.5026 10.0159 10.0547C10.5993 9.72656 11.2139 9.5625 11.8597 9.5625C12.1618 9.5625 12.4691 9.59896 12.7816 9.67188C13.3284 9.82812 13.6774 10.1615 13.8284 10.6719C13.8909 10.8958 13.9222 11.0807 13.9222 11.2266C13.9222 11.8724 13.6149 12.4219 13.0003 12.875C12.3909 13.3229 11.5915 13.5807 10.6019 13.6484C10.6175 13.9661 10.7008 14.2943 10.8519 14.6328C11.0081 14.9714 11.2191 15.2474 11.4847 15.4609C11.693 15.6276 11.9326 15.7109 12.2034 15.7109C12.4795 15.7109 12.831 15.5859 13.2581 15.3359C13.581 15.1536 13.8102 15.0625 13.9456 15.0625C14.0081 15.0625 14.0654 15.0781 14.1175 15.1094C14.1956 15.1615 14.2347 15.2396 14.2347 15.3438C14.2347 15.4427 14.2112 15.5443 14.1644 15.6484C14.1227 15.7474 14.0706 15.8203 14.0081 15.8672C13.4769 16.2578 13.029 16.5208 12.6644 16.6562C12.1852 16.901 11.6852 17.0234 11.1644 17.0234ZM10.6644 12.9141C11.3831 12.8568 11.9847 12.6719 12.4691 12.3594C12.9534 12.0469 13.1956 11.6536 13.1956 11.1797C13.1956 11.1224 13.1826 11.0547 13.1566 10.9766C13.0836 10.7734 12.943 10.6719 12.7347 10.6719C12.2243 10.6927 11.7998 10.8906 11.4612 11.2656C11.1279 11.6354 10.8987 12.0625 10.7737 12.5469L10.6644 12.9141ZM10.2425 5.17969L10.1722 5.1875C10.0107 5.1875 9.93 5.10417 9.93 4.9375C9.93 4.91146 9.94042 4.82812 9.96125 4.6875C10.0081 4.42708 10.2659 3.875 10.7347 3.03125C10.8389 2.84375 10.9977 2.54427 11.2112 2.13281C11.3727 1.77344 11.5654 1.45833 11.7894 1.1875C11.9612 0.979167 12.18 0.875 12.4456 0.875C12.5237 0.875 12.6045 0.882812 12.6878 0.898438C12.9899 1.08073 13.1409 1.29948 13.1409 1.55469C13.1409 1.58594 13.1279 1.6875 13.1019 1.85938C13.0758 2.02604 12.9482 2.26302 12.7191 2.57031C12.4899 2.8776 12.2711 3.13802 12.0628 3.35156C11.9482 3.46615 11.792 3.64323 11.5941 3.88281C11.0993 4.48177 10.6487 4.91406 10.2425 5.17969ZM15.3522 17.6719C14.8053 17.6719 14.5319 16.7318 14.5319 14.8516C14.5319 13.1953 14.6829 11.3984 14.985 9.46094C14.985 9.32031 15.0423 9.21875 15.1569 9.15625C15.3392 9.0625 15.5501 9.01562 15.7897 9.01562C16.0866 9.01562 16.373 9.11458 16.6491 9.3125C16.7845 9.41146 16.8522 9.5 16.8522 9.57812C16.8522 9.61458 16.7011 10.5365 16.3991 12.3438C16.5709 11.7969 16.8261 11.3229 17.1647 10.9219C17.6439 10.349 18.1725 10.0625 18.7506 10.0625C18.9902 10.0625 19.1985 10.0781 19.3756 10.1094C19.7246 10.1979 20.0475 10.3958 20.3444 10.7031C20.6412 11.0104 20.8366 11.3542 20.9303 11.7344C21.0136 12.0052 21.0553 12.4167 21.0553 12.9688C21.0553 13.6146 20.8548 13.9375 20.4537 13.9375C20.2506 13.9375 20.0215 13.8438 19.7662 13.6562C19.2767 13.1146 19.0319 12.3516 19.0319 11.3672C19.0319 10.9974 18.9069 10.8125 18.6569 10.8125C18.2402 10.8125 17.8965 11.0026 17.6256 11.3828C17.3548 11.763 17.1334 12.263 16.9616 12.8828C16.7897 13.4974 16.636 14.1354 16.5006 14.7969C16.3652 15.5 16.2168 16.1146 16.0553 16.6406C15.8939 17.1719 15.6829 17.513 15.4225 17.6641L15.3522 17.6719ZM24.9463 16.9375C24.2796 16.9375 23.6858 16.7344 23.165 16.3281C22.6442 15.9219 22.2431 15.3828 21.9619 14.7109C21.7223 14.1328 21.6025 13.5469 21.6025 12.9531C21.6025 12.2292 21.7535 11.5365 22.0556 10.875C22.316 10.3021 22.6963 9.8099 23.1963 9.39844C23.4775 9.16406 23.8108 8.9974 24.1963 8.89844C24.3681 8.85677 24.5348 8.83594 24.6963 8.83594C24.8994 8.83594 25.1338 8.88281 25.3994 8.97656C25.665 9.0651 25.8759 9.3099 26.0322 9.71094C26.0634 9.8151 26.0791 9.91927 26.0791 10.0234C26.0791 10.1328 26.0478 10.2682 25.9853 10.4297C25.928 10.5859 25.79 10.7135 25.5713 10.8125C25.3525 10.9115 25.1129 11.1745 24.8525 11.6016C24.5921 12.0286 24.4124 12.5469 24.3134 13.1562C24.2926 13.3021 24.2822 13.4505 24.2822 13.6016C24.2822 14.0703 24.389 14.5521 24.6025 15.0469C24.8108 15.4427 25.1832 15.6406 25.7197 15.6406L25.9072 15.6328C26.1207 15.612 26.3108 15.526 26.4775 15.375C26.7848 15.1146 27.0348 14.7969 27.2275 14.4219C27.4098 14.0677 27.5009 13.6667 27.5009 13.2188L27.4931 13.1406C26.9567 12.4323 26.6884 11.8411 26.6884 11.3672C26.6884 11.0182 26.8082 10.8438 27.0478 10.8438C27.2093 10.8438 27.3994 10.9818 27.6181 11.2578C27.8421 11.5286 28.0192 12.0547 28.1494 12.8359C28.7535 13.3307 29.3759 13.5781 30.0166 13.5781C30.152 13.5781 30.2561 13.5599 30.3291 13.5234C30.4645 13.4453 30.5765 13.4062 30.665 13.4062C30.8525 13.4062 30.9463 13.513 30.9463 13.7266C30.9463 13.7786 30.9358 13.8229 30.915 13.8594C30.7067 14.151 30.415 14.2969 30.04 14.2969C29.9515 14.2969 29.7535 14.2734 29.4463 14.2266C29.139 14.1745 28.7067 13.9896 28.1494 13.6719C28.0973 14.0208 27.9436 14.4401 27.6884 14.9297C27.4384 15.4141 27.0999 15.8516 26.6728 16.2422C26.1624 16.7057 25.5869 16.9375 24.9463 16.9375ZM32.4231 17.7422H32.3997C31.7903 17.7422 31.2512 17.5443 30.7825 17.1484C30.319 16.7526 29.9934 16.2682 29.8059 15.6953C29.4778 14.4766 29.3137 13.237 29.3137 11.9766C29.3137 10.5651 29.4492 8.90104 29.72 6.98438C29.7929 6.375 29.8997 5.68229 30.0403 4.90625C30.0507 4.71354 30.1236 4.54688 30.2591 4.40625C30.4518 4.22396 30.6992 4.09896 31.0012 4.03125C31.0898 4.01042 31.1783 4 31.2669 4C31.4648 4 31.6523 4.05469 31.8294 4.16406C32.2929 4.46094 32.5247 4.78385 32.5247 5.13281C32.5247 5.20052 32.4492 5.65885 32.2981 6.50781C32.069 7.8099 31.8632 9.11458 31.6809 10.4219C31.483 11.8281 31.3841 13.1849 31.3841 14.4922C31.3841 14.9401 31.457 15.3568 31.6028 15.7422C31.8268 16.2057 32.1966 16.4375 32.7122 16.4375C33.108 16.4375 33.4387 16.276 33.7044 15.9531C33.7356 15.9219 33.7512 15.8646 33.7512 15.7812L33.7356 15.6016C33.7356 15.4922 33.7773 15.4036 33.8606 15.3359C33.944 15.263 34.0403 15.2266 34.1497 15.2266C34.1549 15.2266 34.1887 15.2292 34.2512 15.2344C34.3137 15.2344 34.3841 15.2891 34.4622 15.3984C34.5611 15.6068 34.6106 15.8073 34.6106 16C34.6106 16.1875 34.5377 16.4141 34.3919 16.6797C34.2512 16.9453 33.9856 17.1875 33.595 17.4062C33.2044 17.625 32.8137 17.737 32.4231 17.7422ZM41.2281 17.7891C41.1083 17.7891 40.913 17.7578 40.6422 17.6953C40.3714 17.638 40.051 17.3516 39.6813 16.8359C39.3167 16.3255 39.0823 15.526 38.9781 14.4375C38.7229 14.9062 38.4599 15.3099 38.1891 15.6484C38.0432 15.8203 37.8661 15.9896 37.6578 16.1562C37.3036 16.4375 36.9599 16.5781 36.6266 16.5781C36.2099 16.5781 35.8297 16.4167 35.4859 16.0938C35.0745 15.6302 34.8688 15.0885 34.8688 14.4688C34.8688 13.8958 35.0042 13.3229 35.275 12.75C35.5458 12.1719 35.9182 11.6745 36.3922 11.2578C36.9911 10.737 37.6839 10.4766 38.4703 10.4766C38.7255 10.4766 38.9286 10.5234 39.0797 10.6172C39.1214 10.6432 39.1682 10.6641 39.2203 10.6797L39.3063 10.2188L39.3453 10.0391C39.3557 9.88802 39.4156 9.77083 39.525 9.6875C39.6344 9.60417 39.7646 9.53646 39.9156 9.48438C40.0667 9.43229 40.2177 9.40625 40.3688 9.40625C40.499 9.40625 40.6708 9.4349 40.8844 9.49219C41.0979 9.54948 41.262 9.625 41.3766 9.71875C41.6734 9.92708 41.8219 10.1432 41.8219 10.3672C41.8219 10.4401 41.7516 10.7865 41.6109 11.4062C41.4807 11.9948 41.3479 12.6693 41.2125 13.4297C41.0875 14.1328 41.025 14.7839 41.025 15.3828L41.0328 15.9609C41.038 16.3307 41.2099 16.6198 41.5484 16.8281C41.6214 16.8698 41.6734 16.9089 41.7047 16.9453C41.8245 17.0911 41.8844 17.224 41.8844 17.3438C41.8844 17.4479 41.8375 17.5417 41.7438 17.625C41.6135 17.7344 41.4417 17.7891 41.2281 17.7891ZM37.1344 15.6406C37.2438 15.6406 37.3635 15.5781 37.4938 15.4531C37.9573 15.0156 38.4417 14.2266 38.9469 13.0859C38.9729 12.487 39.0276 11.8958 39.1109 11.3125C39.0224 11.2656 38.9026 11.2422 38.7516 11.2422C38.7151 11.2422 38.6344 11.2474 38.5094 11.2578C38.3844 11.2682 38.2385 11.3359 38.0719 11.4609C37.6604 11.7995 37.3427 12.2031 37.1188 12.6719C36.9 13.1354 36.7594 13.7161 36.6969 14.4141C36.6917 14.4661 36.6891 14.526 36.6891 14.5938C36.6891 15.1354 36.8036 15.4792 37.0328 15.625C37.0641 15.6354 37.0979 15.6406 37.1344 15.6406ZM48.3069 18.8203C48.1871 18.8203 48.0751 18.7865 47.9709 18.7188C47.8303 18.625 47.76 18.4818 47.76 18.2891C47.76 18.237 47.7652 18.1823 47.7756 18.125L47.7522 18.1719L47.6975 17.25C47.5725 14.8073 47.51 12.3672 47.51 9.92969C47.51 7.70573 47.5621 5.48438 47.6662 3.26562C47.7496 2.84896 47.9892 2.52604 48.385 2.29688C48.5569 2.19792 48.7287 2.14844 48.9006 2.14844C48.9892 2.14844 49.122 2.17708 49.2991 2.23438C49.4761 2.28646 49.6558 2.42188 49.8381 2.64062C50.0204 2.85417 50.1246 3.09635 50.1506 3.36719C50.1454 3.73177 50.1324 4.10677 50.1116 4.49219C50.0907 4.80469 50.0803 5 50.0803 5.07812L50.1428 4.99219C50.747 4.25781 51.2782 3.78125 51.7366 3.5625C52.2001 3.33854 52.5881 3.21354 52.9006 3.1875C53.0412 3.16667 53.1845 3.15625 53.3303 3.15625C53.8251 3.15625 54.3329 3.29688 54.8537 3.57812C55.3746 3.85417 55.8459 4.27083 56.2678 4.82812C56.6949 5.38021 56.997 5.97396 57.1741 6.60938C57.3251 7.27604 57.4006 7.95052 57.4006 8.63281C57.4006 9.1276 57.3329 9.79948 57.1975 10.6484C57.0673 11.4974 56.734 12.4688 56.1975 13.5625C55.661 14.6562 55.0022 15.6276 54.2209 16.4766C53.8876 16.8255 53.4996 17.1354 53.0569 17.4062C52.5725 17.7031 52.0933 17.8516 51.6194 17.8516C51.4996 17.8516 51.3043 17.8203 51.0334 17.7578C50.7678 17.6953 50.4605 17.5651 50.1116 17.3672C49.7626 17.1745 49.4423 16.8854 49.1506 16.5V16.5312C49.1506 16.5469 49.148 16.5625 49.1428 16.5781C49.1376 16.5938 49.135 16.6068 49.135 16.6172C49.0621 17.1745 48.9787 17.724 48.885 18.2656C48.8381 18.6354 48.6454 18.8203 48.3069 18.8203ZM50.9866 17.0078C51.2001 17.0078 51.385 16.9635 51.5412 16.875C51.885 16.6875 52.1767 16.4115 52.4162 16.0469C52.661 15.6875 52.872 15.3255 53.0491 14.9609L53.1428 14.7891C54.3043 12.3411 54.9241 10.013 55.0022 7.80469V7.74219C55.0022 6.8724 54.773 6.07031 54.3147 5.33594C53.9709 4.72656 53.4787 4.34635 52.8381 4.19531C52.7652 4.16927 52.6715 4.15625 52.5569 4.15625C52.4423 4.15625 52.2652 4.17448 52.0256 4.21094C51.7912 4.24219 51.5022 4.41146 51.1584 4.71875C50.7157 5.18229 50.3798 5.72135 50.1506 6.33594C50.0725 6.52865 50.0334 6.64323 50.0334 6.67969L50.0412 6.69531C50.0308 6.73177 50.0152 6.76562 49.9944 6.79688C49.8485 9.59896 49.6194 12.3958 49.3069 15.1875C49.3485 15.25 49.3954 15.3464 49.4475 15.4766C49.6506 16.0234 49.9553 16.4609 50.3616 16.7891C50.5803 16.9349 50.7886 17.0078 50.9866 17.0078ZM60.7212 16.9375C60.0546 16.9375 59.4608 16.7344 58.94 16.3281C58.4192 15.9219 58.0181 15.3828 57.7369 14.7109C57.4973 14.1328 57.3775 13.5469 57.3775 12.9531C57.3775 12.2292 57.5285 11.5365 57.8306 10.875C58.091 10.3021 58.4712 9.8099 58.9712 9.39844C59.2525 9.16406 59.5858 8.9974 59.9712 8.89844C60.1431 8.85677 60.3098 8.83594 60.4712 8.83594C60.6744 8.83594 60.9087 8.88281 61.1744 8.97656C61.44 9.0651 61.6509 9.3099 61.8072 9.71094C61.8384 9.8151 61.8541 9.91927 61.8541 10.0234C61.8541 10.1328 61.8228 10.2682 61.7603 10.4297C61.703 10.5859 61.565 10.7135 61.3462 10.8125C61.1275 10.9115 60.8879 11.1745 60.6275 11.6016C60.3671 12.0286 60.1874 12.5469 60.0884 13.1562C60.0676 13.3021 60.0572 13.4505 60.0572 13.6016C60.0572 14.0703 60.164 14.5521 60.3775 15.0469C60.5858 15.4427 60.9582 15.6406 61.4947 15.6406L61.6822 15.6328C61.8957 15.612 62.0858 15.526 62.2525 15.375C62.5598 15.1146 62.8098 14.7969 63.0025 14.4219C63.1848 14.0677 63.2759 13.6667 63.2759 13.2188L63.2681 13.1406C62.7317 12.4323 62.4634 11.8411 62.4634 11.3672C62.4634 11.0182 62.5832 10.8438 62.8228 10.8438C62.9843 10.8438 63.1744 10.9818 63.3931 11.2578C63.6171 11.5286 63.7942 12.0547 63.9244 12.8359C64.5285 13.3307 65.1509 13.5781 65.7916 13.5781C65.927 13.5781 66.0311 13.5599 66.1041 13.5234C66.2395 13.4453 66.3515 13.4062 66.44 13.4062C66.6275 13.4062 66.7212 13.513 66.7212 13.7266C66.7212 13.7786 66.7108 13.8229 66.69 13.8594C66.4817 14.151 66.19 14.2969 65.815 14.2969C65.7265 14.2969 65.5285 14.2734 65.2212 14.2266C64.914 14.1745 64.4817 13.9896 63.9244 13.6719C63.8723 14.0208 63.7186 14.4401 63.4634 14.9297C63.2134 15.4141 62.8749 15.8516 62.4478 16.2422C61.9374 16.7057 61.3619 16.9375 60.7212 16.9375ZM68.5888 17C67.5888 17 66.7346 16.6667 66.0263 16C65.4117 15.4271 65.1044 14.6849 65.1044 13.7734C65.1044 13.2995 65.2164 12.7969 65.4403 12.2656C65.6695 11.7344 66.0367 11.237 66.5419 10.7734C67.3752 10.0078 68.2658 9.625 69.2138 9.625C69.3596 9.625 69.5914 9.64583 69.9091 9.6875C70.2268 9.72917 70.5549 9.92448 70.8934 10.2734C71.0601 10.3984 71.1903 10.5677 71.2841 10.7812C71.3518 10.9427 71.3856 11.0964 71.3856 11.2422C71.3856 11.2943 71.3752 11.3828 71.3544 11.5078C71.3335 11.6328 71.2111 11.7214 70.9872 11.7734C70.8622 11.7682 70.7632 11.7188 70.6903 11.625C70.6486 11.5573 70.6278 11.487 70.6278 11.4141C70.6278 11.3724 70.633 11.3333 70.6434 11.2969C70.6539 11.2552 70.6591 11.2188 70.6591 11.1875C70.6591 11.0625 70.607 10.9609 70.5028 10.8828C70.3726 10.7943 70.1877 10.75 69.9481 10.75C69.8335 10.75 69.7294 10.7604 69.6356 10.7812C69.1252 10.9427 68.745 11.2552 68.495 11.7188C68.2502 12.1771 68.0757 12.6562 67.9716 13.1562C67.9507 13.276 67.9403 13.3984 67.9403 13.5234C67.9403 13.7839 67.9924 14.0833 68.0966 14.4219C68.2007 14.7552 68.3934 15.0573 68.6747 15.3281C68.9559 15.5938 69.3023 15.7266 69.7138 15.7266C70.0106 15.7266 70.2789 15.6484 70.5184 15.4922C70.7632 15.3359 70.9403 15.1823 71.0497 15.0312C71.1486 14.9427 71.2346 14.8984 71.3075 14.8984C71.4117 14.8984 71.4794 14.9609 71.5106 15.0859C71.5263 15.1276 71.5341 15.1719 71.5341 15.2188C71.5341 15.4062 71.383 15.638 71.0809 15.9141C70.8518 16.1224 70.594 16.3151 70.3075 16.4922C70.0263 16.6745 69.7971 16.7943 69.62 16.8516C69.2763 16.9505 68.9325 17 68.5888 17ZM75.05 17.0234C74.9094 17.0234 74.6333 16.9948 74.2219 16.9375C73.8156 16.8854 73.3417 16.6484 72.8 16.2266C72.0083 15.5339 71.6125 14.7214 71.6125 13.7891C71.6125 13.112 71.8078 12.4323 72.1984 11.75C72.5891 11.0677 73.1568 10.5026 73.9016 10.0547C74.4849 9.72656 75.0995 9.5625 75.7453 9.5625C76.0474 9.5625 76.3547 9.59896 76.6672 9.67188C77.2141 9.82812 77.563 10.1615 77.7141 10.6719C77.7766 10.8958 77.8078 11.0807 77.8078 11.2266C77.8078 11.8724 77.5005 12.4219 76.8859 12.875C76.2766 13.3229 75.4771 13.5807 74.4875 13.6484C74.5031 13.9661 74.5865 14.2943 74.7375 14.6328C74.8938 14.9714 75.1047 15.2474 75.3703 15.4609C75.5786 15.6276 75.8182 15.7109 76.0891 15.7109C76.3651 15.7109 76.7167 15.5859 77.1438 15.3359C77.4667 15.1536 77.6958 15.0625 77.8313 15.0625C77.8938 15.0625 77.951 15.0781 78.0031 15.1094C78.0813 15.1615 78.1203 15.2396 78.1203 15.3438C78.1203 15.4427 78.0969 15.5443 78.05 15.6484C78.0083 15.7474 77.9563 15.8203 77.8938 15.8672C77.3625 16.2578 76.9146 16.5208 76.55 16.6562C76.0708 16.901 75.5708 17.0234 75.05 17.0234ZM74.55 12.9141C75.2688 12.8568 75.8703 12.6719 76.3547 12.3594C76.8391 12.0469 77.0813 11.6536 77.0813 11.1797C77.0813 11.1224 77.0682 11.0547 77.0422 10.9766C76.9693 10.7734 76.8286 10.6719 76.6203 10.6719C76.1099 10.6927 75.6854 10.8906 75.3469 11.2656C75.0135 11.6354 74.7844 12.0625 74.6594 12.5469L74.55 12.9141Z" fill="#FF347D"/>
</svg>
